<?xml version="1.0" encoding="UTF-8" standalone="no"?><svg xmlns="http://www.w3.org/2000/svg" xmlns:xlink="http://www.w3.org/1999/xlink" contentScriptType="application/ecmascript" contentStyleType="text/css" height="421px" preserveAspectRatio="none" style="width:215px;height:421px;" version="1.1" viewBox="0 0 215 421" width="215px" zoomAndPan="magnify"><defs><filter height="300%" id="fv7h7jnlcqw7a" width="300%" x="-1" y="-1"><feGaussianBlur result="blurOut" stdDeviation="2.0"/><feColorMatrix in="blurOut" result="blurOut2" type="matrix" values="0 0 0 0 0 0 0 0 0 0 0 0 0 0 0 0 0 0 .4 0"/><feOffset dx="4.0" dy="4.0" in="blurOut2" result="blurOut3"/><feBlend in="SourceGraphic" in2="blurOut3" mode="normal"/></filter></defs><g><ellipse cx="107" cy="20" fill="#000000" filter="url(#fv7h7jnlcqw7a)" rx="10" ry="10" style="stroke: none; stroke-width: 1.0;"/><rect fill="#FEFECE" filter="url(#fv7h7jnlcqw7a)" height="36.3887" rx="12.5" ry="12.5" style="stroke: #A80036; stroke-width: 1.5;" width="68" x="73" y="50"/><text fill="#000000" font-family="sans-serif" font-size="12" lengthAdjust="spacingAndGlyphs" textLength="48" x="83" y="73.752">定位项目</text><rect fill="#FEFECE" filter="url(#fv7h7jnlcqw7a)" height="36.3887" rx="12.5" ry="12.5" style="stroke: #A80036; stroke-width: 1.5;" width="68" x="73" y="106.3887"/><text fill="#000000" font-family="sans-serif" font-size="12" lengthAdjust="spacingAndGlyphs" textLength="48" x="83" y="130.1406">定位接口</text><rect fill="#FEFECE" filter="url(#fv7h7jnlcqw7a)" height="36.3887" rx="12.5" ry="12.5" style="stroke: #A80036; stroke-width: 1.5;" width="177" x="18.5" y="162.7773"/><text fill="#000000" font-family="sans-serif" font-size="12" lengthAdjust="spacingAndGlyphs" textLength="157" x="28.5" y="186.5293">查看日志路径（grep）搜日志</text><rect fill="#FEFECE" filter="url(#fv7h7jnlcqw7a)" height="36.3887" rx="12.5" ry="12.5" style="stroke: #A80036; stroke-width: 1.5;" width="194" x="10" y="219.166"/><text fill="#000000" font-family="sans-serif" font-size="12" lengthAdjust="spacingAndGlyphs" textLength="174" x="20" y="242.918">查redis, MySQL库, 数据是否落盘</text><rect fill="#FEFECE" filter="url(#fv7h7jnlcqw7a)" height="36.3887" rx="12.5" ry="12.5" style="stroke: #A80036; stroke-width: 1.5;" width="125" x="44.5" y="275.5547"/><text fill="#000000" font-family="sans-serif" font-size="12" lengthAdjust="spacingAndGlyphs" textLength="105" x="54.5" y="299.3066">telnet 能否与库连通</text><rect fill="#FEFECE" filter="url(#fv7h7jnlcqw7a)" height="36.3887" rx="12.5" ry="12.5" style="stroke: #A80036; stroke-width: 1.5;" width="167" x="23.5" y="331.9434"/><text fill="#000000" font-family="sans-serif" font-size="12" lengthAdjust="spacingAndGlyphs" textLength="147" x="33.5" y="355.6953">最后排查其他,例如网络问题</text><ellipse cx="107" cy="399.332" fill="#FFFFFF" filter="url(#fv7h7jnlcqw7a)" rx="11" ry="11" style="stroke: #000000; stroke-width: 1.0;"/><ellipse cx="107" cy="399.332" fill="#000000" rx="6" ry="6" style="stroke: #7F7F7F; stroke-width: 1.0;"/><line style="stroke: #A80036; stroke-width: 1.5;" x1="107" x2="107" y1="30" y2="50"/><polygon fill="#A80036" points="103,40,107,50,111,40,107,44" style="stroke: #A80036; stroke-width: 1.0;"/><line style="stroke: #A80036; stroke-width: 1.5;" x1="107" x2="107" y1="86.3887" y2="106.3887"/><polygon fill="#A80036" points="103,96.3887,107,106.3887,111,96.3887,107,100.3887" style="stroke: #A80036; stroke-width: 1.0;"/><line style="stroke: #A80036; stroke-width: 1.5;" x1="107" x2="107" y1="142.7773" y2="162.7773"/><polygon fill="#A80036" points="103,152.7773,107,162.7773,111,152.7773,107,156.7773" style="stroke: #A80036; stroke-width: 1.0;"/><line style="stroke: #A80036; stroke-width: 1.5;" x1="107" x2="107" y1="199.166" y2="219.166"/><polygon fill="#A80036" points="103,209.166,107,219.166,111,209.166,107,213.166" style="stroke: #A80036; stroke-width: 1.0;"/><line style="stroke: #A80036; stroke-width: 1.5;" x1="107" x2="107" y1="255.5547" y2="275.5547"/><polygon fill="#A80036" points="103,265.5547,107,275.5547,111,265.5547,107,269.5547" style="stroke: #A80036; stroke-width: 1.0;"/><line style="stroke: #A80036; stroke-width: 1.5;" x1="107" x2="107" y1="311.9434" y2="331.9434"/><polygon fill="#A80036" points="103,321.9434,107,331.9434,111,321.9434,107,325.9434" style="stroke: #A80036; stroke-width: 1.0;"/><line style="stroke: #A80036; stroke-width: 1.5;" x1="107" x2="107" y1="368.332" y2="388.332"/><polygon fill="#A80036" points="103,378.332,107,388.332,111,378.332,107,382.332" style="stroke: #A80036; stroke-width: 1.0;"/><!--MD5=[9fd955415c0563abe81ab3e8637c9ec6]
@startuml
start
:定位项目;
:定位接口;
:查看日志路径（grep）搜日志;
:查redis, MySQL库, 数据是否落盘;
:telnet 能否与库连通;
:最后排查其他,例如网络问题;
stop

@enduml

PlantUML version 1.2020.10(Sun May 17 17:35:57 CST 2020)
(GPL source distribution)
Java Runtime: OpenJDK Runtime Environment
JVM: OpenJDK 64-Bit Server VM
Java Version: 14.0.1+7
Operating System: Windows 10
Default Encoding: GBK
Language: zh
Country: CN
--></g></svg>